<svg width="32" height="31" viewBox="0 0 32 31" fill="none" xmlns="http://www.w3.org/2000/svg">
<g id="web-page-svgrepo-com 1" clip-path="url(#clip0_2441_22784)">
<g id="Group">
<path id="Vector" d="M28.5938 0H3.40625C1.80127 0 0.5 1.30127 0.5 2.90625V28.0938C0.5 29.6987 1.80127 31 3.40625 31H28.5938C30.1987 31 31.5 29.6987 31.5 28.0938V2.90625C31.5 1.30127 30.1987 0 28.5938 0ZM27.423 2.11914C28.0583 2.11914 28.5734 2.63427 28.5734 3.26953C28.5734 3.90479 28.0583 4.41992 27.423 4.41992C26.7878 4.41992 26.2726 3.90479 26.2726 3.26953C26.2726 2.63427 26.7878 2.11914 27.423 2.11914ZM23.1545 2.11914C23.7897 2.11914 24.3049 2.63427 24.3049 3.26953C24.3049 3.90479 23.7897 4.41992 23.1545 4.41992C22.5192 4.41992 22.0041 3.90479 22.0041 3.26953C22.0041 2.63427 22.5192 2.11914 23.1545 2.11914ZM18.8859 2.11914C19.5212 2.11914 20.0363 2.63427 20.0363 3.26953C20.0363 3.90479 19.5212 4.41992 18.8859 4.41992C18.2506 4.41992 17.7355 3.90479 17.7355 3.26953C17.7355 2.63427 18.2506 2.11914 18.8859 2.11914ZM29.0781 28.0938C29.0781 28.3605 28.861 28.5781 28.5938 28.5781H3.40625C3.139 28.5781 2.92188 28.3605 2.92188 28.0938V6.29688H29.0781V28.0938Z" fill="#2B61EF"/>
<path id="Vector_2" d="M15.5156 11.625H6.3125V13.5625H15.5156V11.625Z" fill="#2B61EF"/>
<path id="Vector_3" d="M26.1719 21.3125H6.3125V23.25H26.1719V21.3125Z" fill="#2B61EF"/>
<path id="Vector_4" d="M26.1719 11.625H18.9062V18.8906H26.1719V11.625Z" fill="#2B61EF"/>
<path id="Vector_5" d="M14.3678 18.4062H15.5156V16.4688H6.3125V18.4062H13.399H14.3678Z" fill="#2B61EF"/>
</g>
</g>
<defs>
<clipPath id="clip0_2441_22784">
<rect width="31" height="31" fill="white" transform="translate(0.5)"/>
</clipPath>
</defs>
</svg>
